<svg xmlns="http://www.w3.org/2000/svg" width="1200" height="280" viewBox="0 0 1200 280" role="img" aria-label="Plesk SDK for PHP">
  <defs>
    <linearGradient id="bg" x1="0" y1="0" x2="1" y2="1">
      <stop offset="0" stop-color="#0b1e33"/>
      <stop offset="0.55" stop-color="#0f6ab0"/>
      <stop offset="1" stop-color="#53bce6"/>
    </linearGradient>
    <linearGradient id="accent" x1="0" y1="0" x2="1" y2="0">
      <stop offset="0" stop-color="#53bce6"/>
      <stop offset="1" stop-color="#d3f1fc"/>
    </linearGradient>
    <pattern id="dots" width="26" height="26" patternUnits="userSpaceOnUse">
      <circle cx="2" cy="2" r="1.6" fill="#ffffff" opacity="0.09"/>
    </pattern>
  </defs>

  <rect width="1200" height="280" rx="16" fill="url(#bg)"/>
  <rect width="1200" height="280" rx="16" fill="url(#dots)"/>

  <g opacity="0.16" stroke="#ffffff" stroke-width="3" fill="none" stroke-linecap="round" stroke-linejoin="round">
    <rect x="930" y="62" width="160" height="110" rx="10"/>
    <path d="M930 92h160"/>
    <circle cx="948" cy="77" r="4" fill="#ffffff" stroke="none"/>
    <circle cx="964" cy="77" r="4" fill="#ffffff" stroke="none"/>
    <path d="M950 118l18 16-18 16M986 150h44" stroke-width="4"/>
    <path d="M965 200h120M965 220h90" stroke-width="4"/>
  </g>

  <g opacity="0.22" font-family="ui-monospace, 'SF Mono', Menlo, monospace" font-size="20" fill="#ffffff">
    <text x="76" y="228">$plesk-&gt;domains()-&gt;create('example.com', ...);</text>
  </g>

  <g font-family="-apple-system, 'Segoe UI', Helvetica, Arial, sans-serif">
    <text x="76" y="118" font-size="64" font-weight="800" fill="#ffffff" letter-spacing="-1">Plesk SDK PHP</text>
    <text x="76" y="166" font-size="30" font-weight="500" fill="#d3f1fc">REST API v2 + CLI bridge</text>
  </g>

  <rect x="78" y="188" width="220" height="6" rx="3" fill="url(#accent)"/>

  <g font-family="-apple-system, 'Segoe UI', Helvetica, Arial, sans-serif" font-size="15" font-weight="600" fill="#ffffff" opacity="0.85" text-anchor="middle">
    <g>
      <rect x="700" y="52" width="110" height="30" rx="15" fill="#ffffff" opacity="0.12"/>
      <text x="755" y="72">Domains</text>
    </g>
    <g>
      <rect x="822" y="52" width="72" height="30" rx="15" fill="#ffffff" opacity="0.12"/>
      <text x="858" y="72">Mail</text>
    </g>
    <g>
      <rect x="700" y="94" width="72" height="30" rx="15" fill="#ffffff" opacity="0.12"/>
      <text x="736" y="114">DNS</text>
    </g>
    <g>
      <rect x="784" y="94" width="122" height="30" rx="15" fill="#ffffff" opacity="0.12"/>
      <text x="845" y="114">CLI bridge</text>
    </g>
  </g>
</svg>
